{
  "accessors": [
    {
      "bufferView": 0,
      "componentType": 5126,
      "count": 6,
      "type": "VEC3",
      "max": [
        1.0,
        1.0,
        1.0
      ],
      "min": [
        0.0,
        0.0,
        0.0
      ]
    },
    {
      "bufferView": 1,
      "componentType": 5126,
      "count": 6,
      "type": "VEC3"
    },
    {
      "bufferView": 2,
      "componentType": 5126,
      "count": 6,
      "type": "VEC2"
    },
    {
      "bufferView": 3,
      "componentType": 5123,
      "count": 6,
      "type": "SCALAR"
    }
  ],
  "asset": {
    "generator": "handmade",
    "version": "2.0"
  },
  "bufferViews": [
    {
      "buffer": 0,
      "byteLength": 72
    },
    {
      "buffer": 0,
      "byteOffset": 72,
      "byteLength": 72
    },
    {
      "buffer": 0,
      "byteOffset": 144,
      "byteLength": 48
    },
    {
      "buffer": 0,
      "byteOffset": 192,
      "byteLength": 12
    }
  ],
  "buffers": [
    {
      "uri": "test.bin",
      "byteLength": 204
    }
  ],
  "meshes": [
    {
      "primitives": [
        {
          "attributes": {
            "TEXCOORD_0": 2,
            "NORMAL": 1,
            "POSITION": 0
          },
          "indices": 3
        }
      ],
      "name": "test"
    }
  ],
  "materials": [],
  "nodes": [
    {
      "mesh": 0,
      "rotation": [
        0.0,
        1.0,
        0.0,
        0.0
      ],
      "name": "test"
    }
  ],
  "scene": 0,
  "scenes": [
    {
      "nodes": [
        0
      ]
    }
  ]
}
